<svg xmlns="http://www.w3.org/2000/svg" width="100%" height="100%" viewBox="0 0 254 254">
  <title>Web Platform Specs Logo</title>
<!--
  <style type="text/css">
    #strut-1, #top-1  { fill: #f99d1c; }
    #join-1           { fill: #d02e27; }
    #strut-2          { fill: #dc4e3e; }
    #join-2           { fill: #58152a; }
    #strut-3          { fill: #694d9f; }
    #join-3           { fill: #263c82; }
    #strut-4, #top-2  { fill: #30b4c5; }
    #outline {
        fill: #f1ecd7;
        stroke: #f1ecd7;
        stroke-width: 10px;
    }
    #background {
        fill: #000;
    }
  </style>
-->
  <style type="text/css">
    #strut-1  { fill: #f99d1c; }
    #join-1   { fill: #d02e27; }
    #strut-2  { fill: #dc4e3e; }
    #join-2   { fill: #58152a; }
    #strut-3  { fill: #694d9f; }
    #join-3   { fill: #263c82; }
    #strut-4  { fill: #30b4c5; }
    #outline {
        fill: #f1ecd7;
        stroke: #f1ecd7;
        stroke-width: 10px;
    }
    #background {
        fill: #000;
    }
  </style>
  
  <!--
    XXX
      place the logo in the middle as described on the site
  -->
  
  <rect id="background" x="-500" y="-500" width="2000" height="2000"/>

  <svg id="logo" x="5" y="5" overflow="visible">
    <path id="outline" d="M66,33 V131.5 L98.76,98.57 A33,33 0 0,1 145.33,98.67 L178,131.5 V33 A33,33 0 1,1 244,33 V211 A33,33 45 0,1 187.67,234.43 L122,168.67 L56.33,234.43 A33,33 45 0,1 0,211 V33 A33,33 45 1,1 66,33 Z"/>
    
    <path id="strut-1" d="M66,33 V211 A33,33 0 1,1 0,211 V33 A33,33 45 1,1 66,33 Z M33,19 A14,14 0 1,0 33,47 A14,14 0 1,0 33,19 Z M33,197 A14,14 0 1,0 33,225 A14,14 0 1,0 33,197 Z"/>
    <path id="strut-2" d="M9.67,187.67 L98.76,98.57 A33,33 0 1,1 145.43,145.24 L56.33,234.43 A33,33 45 1,1 9.67,187.67 Z M33,197 A14,14 0 1,0 33,225 A14,14 0 1,0 33,197 Z  M122,108 A14,14 0 1,0 122,136 A14,14 0 1,0 122,108 Z"/>
    <path id="strut-3" d="M145.33,98.67 L234.43,187.76 A33,33 0 1,1 187.67,234.43 L98.67,145.43 A33,33 45 1,1 145.33,98.67 Z  M122,108 A14,14 0 1,0 122,136 A14,14 0 1,0 122,108 Z  M211,197 A14,14 0 1,0 211,225 A14,14 0 1,0 211,197 Z"/>
    <path id="strut-4" d="M178,211 V33 A33,33 0 1,1 244,33 V211 A33,33 45 1,1 178,211 Z M211,19 A14,14 0 1,0 211,47 A14,14 0 1,0 211,19 Z M211,197 A14,14 0 1,0 211,225 A14,14 0 1,0 211,197 Z"/>

    <path id="join-1" d="M66,131.5 V211 A33,33 45 1,1 9.67,187.67 Z M33,197 A14,14 0 1,0 33,225 A14,14 0 1,0 33,197 Z "/>
    <path id="join-2" d="M122,168.67 L98.67,145.33 A33,33 45 1,1 145.43,145.33 Z M122,108 A14,14 0 1,0 122,136 A14,14 0 1,0 122,108 Z"/>
    <path id="join-3" d="M178,131.5 V211 A33,33 45 1,0 234.43,187.67 Z M211,197 A14,14 0 1,1 211,225 A14,14 0 1,1 211,197 Z"/> 
  </svg>
</svg>